<svg width="80" height="42" viewBox="0 0 80 42" fill="none" xmlns="http://www.w3.org/2000/svg">
<g clip-path="url(#clip0_411_875)">
<path d="M46.6471 11.4372L44.9454 11.9729C44.8196 12.0126 44.6863 11.9412 44.6473 11.8138L44.4241 11.0842C44.3851 10.9568 44.4555 10.8213 44.5813 10.7816L46.283 10.2459C46.4087 10.2061 46.542 10.2776 46.581 10.405L46.8043 11.1345C46.8433 11.2619 46.7728 11.3974 46.6471 11.4372Z" fill="url(#paint0_linear_411_875)"/>
<path d="M48.396 12.9928L46.6943 13.5285C46.5685 13.5683 46.4352 13.4968 46.3962 13.3694L46.173 12.6399C46.134 12.5125 46.2044 12.377 46.3302 12.3372L48.0319 11.8015C48.1576 11.7618 48.291 11.8332 48.3299 11.9606L48.5532 12.6902C48.5915 12.8176 48.5217 12.9531 48.396 12.9928Z" fill="url(#paint1_linear_411_875)"/>
<path d="M50.5799 14.5485L48.8783 15.0842C48.7525 15.124 48.6192 15.0525 48.5802 14.9251L48.3569 14.1955C48.318 14.0681 48.3884 13.9327 48.5142 13.8929L50.2158 13.3572C50.3416 13.3174 50.4749 13.3889 50.5139 13.5163L50.7371 14.2459C50.7755 14.3733 50.7057 14.5087 50.5799 14.5485Z" fill="url(#paint2_linear_411_875)"/>
<path d="M52.4803 16.0842L50.7786 16.6198C50.6529 16.6596 50.5196 16.5882 50.4806 16.4608L50.2573 15.7312C50.2183 15.6038 50.2888 15.4683 50.4145 15.4285L52.1162 14.8928C52.242 14.8531 52.3753 14.9245 52.4143 15.0519L52.6375 15.7815C52.6759 15.9089 52.6061 16.0444 52.4803 16.0842Z" fill="url(#paint3_linear_411_875)"/>
<path d="M55.0807 17.5754L53.379 18.1111C53.2532 18.1508 53.1199 18.0794 53.0809 17.952L52.8577 17.2224C52.8187 17.095 52.8891 16.9595 53.0149 16.9197L54.7166 16.3841C54.8423 16.3443 54.9756 16.4157 55.0146 16.5431L55.2379 17.2727C55.2769 17.4001 55.2064 17.5356 55.0807 17.5754Z" fill="url(#paint4_linear_411_875)"/>
<path d="M57.6375 18.6979L55.9359 19.2336C55.8101 19.2734 55.6768 19.2019 55.6378 19.0745L55.4146 18.3449C55.3756 18.2175 55.446 18.0821 55.5718 18.0423L57.2734 17.5066C57.3992 17.4668 57.5325 17.5383 57.5715 17.6657L57.7948 18.3953C57.8337 18.5227 57.7633 18.6582 57.6375 18.6979Z" fill="url(#paint5_linear_411_875)"/>
<path d="M60.1944 19.7375L58.4928 20.2732C58.367 20.3129 58.2337 20.2415 58.1947 20.1141L57.9714 19.3845C57.9325 19.2571 58.0029 19.1216 58.1287 19.0818L59.8303 18.5462C59.9561 18.5064 60.0894 18.5779 60.1284 18.7053L60.3516 19.4348C60.3906 19.5622 60.3202 19.6977 60.1944 19.7375Z" fill="url(#paint6_linear_411_875)"/>
<path d="M60.5661 19.9183C60.424 20.1203 60.2234 20.2694 59.9863 20.344L59.0034 20.6535C58.8927 20.6883 58.7808 20.7051 58.6707 20.7051C58.1909 20.7051 57.7457 20.3912 57.5967 19.9028C57.5275 19.6772 57.5313 19.4466 57.5941 19.236C57.5413 19.2621 57.4872 19.2863 57.4288 19.3043L56.4459 19.6138C56.3358 19.6486 56.2232 19.6654 56.1113 19.6654C55.9315 19.6654 55.7529 19.6213 55.5894 19.5336C55.3234 19.392 55.1284 19.1533 55.0391 18.8625C54.9611 18.6083 54.9731 18.3405 55.0706 18.0975C55.0077 18.1317 54.941 18.1602 54.8718 18.182L53.8889 18.4915C53.7783 18.5263 53.6663 18.5431 53.5563 18.5431C53.0765 18.5431 52.6312 18.2292 52.4822 17.7408C52.325 17.2274 52.5457 16.6862 52.9828 16.4227C52.9243 16.3897 52.8658 16.3574 52.8067 16.3245C52.6683 16.496 52.4841 16.6228 52.2709 16.6905L51.288 17C51.1773 17.0348 51.0654 17.0516 50.9554 17.0516C50.4755 17.0516 50.0303 16.7377 49.8813 16.2493C49.775 15.9013 49.8423 15.5408 50.0328 15.2618L49.3876 15.465C49.2776 15.4998 49.165 15.5166 49.0531 15.5166C48.8732 15.5166 48.6946 15.4725 48.5311 15.3848C48.2651 15.2432 48.0702 15.0045 47.9809 14.7137C47.8916 14.4228 47.9199 14.114 48.0595 13.8443C48.1117 13.7436 48.1771 13.6535 48.2532 13.5746C48.2312 13.5833 48.2092 13.592 48.1859 13.5994L47.203 13.9089C47.0929 13.9437 46.9804 13.9605 46.8684 13.9605C46.6886 13.9605 46.51 13.9164 46.3465 13.8287C46.0805 13.687 45.8856 13.4484 45.7963 13.1576C45.707 12.8667 45.7353 12.5579 45.8749 12.2882C45.89 12.2596 45.9063 12.2322 45.9233 12.2049L45.4542 12.3528C45.3435 12.3876 45.2315 12.4044 45.1215 12.4044C44.6046 12.4044 44.1279 12.0396 44.0179 11.4853C43.9034 10.9054 44.2725 10.3374 44.8291 10.1622L44.9354 10.1286C44.9347 10.1274 44.9341 10.1261 44.9335 10.1255C44.8127 9.93226 44.7146 9.72469 44.6367 9.50967C44.0845 7.99396 43.7242 6.67773 42.9746 6.09481C41.5773 5.00789 39.7863 5.6716 39.7385 6.62366C42.1093 6.7436 43.1255 7.50736 42.9746 8.27112C42.8243 9.03488 41.7439 12.011 42.0772 12.6225C42.2854 13.0047 46.5119 16.2139 52.3948 18.9035C55.9245 20.5174 60.7453 22.7403 63.7091 21.8243C64.2298 21.0338 61.3654 20.1476 60.5661 19.9183Z" fill="url(#paint7_linear_411_875)"/>
<path d="M4.66175 25.0304C4.92524 25.3356 9.11339 28.5043 18.233 29.4974C27.3526 30.4899 43.7593 33.594 52.6777 34.556C64.4655 35.9306 78.36 34.2123 79.9969 31.0628C80.1101 34.4988 77.1746 38.1063 70.966 40.1105C65.7163 36.6173 51.7747 35.8728 44.0417 40.1105C39.8963 38.9962 37.457 37.488 32.4639 37.0753C27.1916 36.6397 20.5604 38.1063 16.5389 38.5072C15.8754 33.1242 16.1188 26.4815 11.0584 38.1063C8.31223 38.1063 7.01365 37.419 7.01365 37.419C7.01365 37.419 8.53736 30.089 6.95706 29.5738C5.37675 29.0587 4.30393 32.3225 1.42568 34.6132C-0.719338 32.8955 0.071129 31.1772 0.522645 30.662C0.97416 30.1468 3.52667 25.2144 3.59521 25.0783C3.88826 24.4954 4.44857 24.7831 4.66175 25.0304Z" fill="url(#paint8_linear_411_875)"/>
<path d="M2.44202 35.2997C2.44202 35.2997 4.09967 36.4736 6.11074 37.1323C6.84461 31.2342 7.29612 30.2032 2.44202 35.2997Z" fill="url(#paint9_linear_411_875)"/>
<path d="M12.0941 38.3349C13.4575 34.3539 14.5215 29.8596 15.9326 38.6214C13.3921 38.7929 12.0941 38.3349 12.0941 38.3349Z" fill="url(#paint10_linear_411_875)"/>
<path d="M46.0735 40.3968C54.6529 44.0043 69.2725 40.3968 69.2725 40.3968C64.4749 37.1895 52.96 36.9608 46.0735 40.3968Z" fill="url(#paint11_linear_411_875)"/>
<path d="M14.8881 1.37024C14.5548 1.12228 14.2391 0.59094 13.8448 0.38959C13.8398 0.361004 13.8304 0.334281 13.8159 0.310045C11.9507 -1.3716 9.53532 4.20777 8.70775 6.95333C8.3688 8.15584 8.08708 10.3322 8.08708 10.3322C8.08708 10.3322 7.91792 11.191 8.22794 11.4203C8.53859 11.6496 15.876 14.9135 16.1584 14.2261C16.4407 13.5388 16.5533 11.9355 16.1584 10.9623C15.7635 9.98911 11.4168 9.58765 11.0785 9.30179C10.7396 9.0153 10.8528 7.41196 11.2477 7.64128C11.6426 7.87059 13.6751 9.18744 14.2391 8.55729C14.8038 7.92714 15.3113 7.01113 14.973 6.49595C14.6341 5.98077 12.1507 6.41019 12.2073 5.6371C12.2639 4.86402 12.7997 4.34884 13.1386 4.46319C13.4776 4.57753 15.312 4.94978 15.9892 5.55134C16.6665 6.15291 18.2751 4.1767 18.3317 3.06058C18.3877 1.94259 15.3113 1.68531 14.8881 1.37024Z" fill="url(#paint12_linear_411_875)"/>
<path d="M18.5852 5.33088C17.7576 5.25445 17.9079 5.90324 17.8324 6.28543C17.757 6.667 17.9079 13.9206 16.5527 14.6464C16.3269 15.028 18.8857 15.1809 20.2026 15.6774C21.5194 16.1739 20.8421 14.6849 20.5038 13.9212C20.1648 13.1574 19.2241 9.07263 19.4876 8.3474C19.751 7.62217 22.2344 12.6615 22.3853 13.8447C22.5356 15.028 21.8583 15.5245 22.3853 15.9446C22.9123 16.3647 23.6273 16.7848 24.3794 16.9371C25.1315 17.0893 24.3039 12.9666 24.3794 12.165C24.4549 11.3633 24.1128 7.66008 24.6976 6.93484C25.2824 6.20961 25.9974 6.01883 25.0944 5.5602C24.1914 5.10157 21.7451 4.59323 21.7451 5.32467C21.7451 6.05612 23.2506 11.7449 23.0997 12.5465C21.8954 11.3633 20.3529 6.62909 20.2397 6.09465C20.1265 5.5602 18.5852 5.33088 18.5852 5.33088Z" fill="url(#paint13_linear_411_875)"/>
<path d="M29.0831 5.57102C28.5461 5.32368 26.8985 6.21794 26.1106 6.25399C25.5377 6.39941 25.7527 6.83504 25.8596 7.12588C25.9672 7.41672 26.5885 10.5414 26.7677 12.031C26.9469 13.5206 27.3997 15.3737 26.5759 15.5919C25.7521 15.81 26.0609 13.812 25.5238 14.3204C24.9868 14.8294 25.1981 16.342 26.0213 17.2139C26.8451 18.0858 29.1542 17.5171 29.0825 16.2817C29.0115 15.0469 29.6202 5.81835 29.0831 5.57102Z" fill="url(#paint14_linear_411_875)"/>
<path d="M24.8422 3.82761C24.5334 4.05942 24.807 4.01405 25.2635 4.64109C25.7201 5.26813 25.6647 5.7336 26.1628 5.80258C26.6608 5.87156 27.916 5.23582 28.3078 5.22774C28.6996 5.21966 28.9568 5.0152 28.753 4.62183C28.5493 4.22845 28.3292 4.2502 28.2644 3.67909C28.1996 3.10798 25.932 3.44667 24.8422 3.82761Z" fill="url(#paint15_linear_411_875)"/>
<path d="M33.5656 6.69604C31.4772 6.46672 30.3484 6.78988 30.0095 7.54494C29.6705 8.29938 29.4731 13.6432 29.6988 14.5505C29.9246 15.4578 32.1262 15.8015 33.0009 15.8873C33.8757 15.973 35.0611 11.6782 35.1742 10.59C35.2874 9.50188 35.8798 6.83897 33.5656 6.69604ZM33.4531 9.55905C33.3965 9.95989 32.6054 13.3101 32.4645 13.596C32.3237 13.8825 32.0426 13.8253 31.5345 13.6817C31.0263 13.5388 31.1395 10.6752 31.2804 9.6734C31.4213 8.671 31.5627 8.75738 32.4645 8.671C33.7329 8.90032 33.509 9.15822 33.4531 9.55905Z" fill="url(#paint16_linear_411_875)"/>
<path d="M30.5138 5.99892C33.2984 5.96102 35.8949 6.17293 35.8572 7.3369C36.1961 8.25292 35.2686 11.9804 35.3252 12.9921C35.3252 13.5644 36.7979 13.4756 37.0991 13.8006C37.4004 14.1256 34.8177 16.3299 34.258 16.5934C33.6983 16.8569 30.4761 15.9061 29.8743 15.7153C29.2725 15.5245 29.724 17.1353 30.5138 17.6853C31.3043 18.2353 35.0485 19.2084 36.0263 18.1781C37.0048 17.1471 40.1843 14.2076 40.1843 13.7111C40.1843 13.2146 42.0658 8.57607 41.6143 8.11806C41.1628 7.66006 38.6229 7.12561 38.3216 7.7744C38.0204 8.4232 38.8297 12.8516 38.3028 12.5844C37.7758 12.3172 37.1362 12.4315 37.0985 11.8592C37.0608 11.2868 37.9827 6.27298 37.3054 5.80752C36.7979 4.68207 30.5138 5.99892 30.5138 5.99892Z" fill="url(#paint17_linear_411_875)"/>
<path d="M33.3745 18.7034C30.4271 18.474 28.8342 18.7972 28.3563 19.5523C27.8783 20.3067 26.9483 28.5515 27.2665 29.4588C27.5853 30.3661 31.3081 30.3046 32.5425 30.3903C33.777 30.4761 35.4849 23.6855 35.6446 22.5974C35.8037 21.5092 36.6401 18.8469 33.3745 18.7034ZM33.0601 22.3332C32.9802 22.7341 32.03 26.5771 31.8313 26.863C31.6319 27.1495 31.1767 27.6075 30.4598 27.4645C29.7429 27.3216 29.9498 22.6837 30.1485 21.6813C30.3239 20.7983 30.4994 20.7604 31.4087 20.7044C31.7099 20.6864 32.0137 20.7169 32.3048 20.7958C33.1192 21.017 33.1273 21.9914 33.0601 22.3332Z" fill="url(#paint18_linear_411_875)"/>
<path d="M17.6255 15.8881C16.8432 15.6538 11.7885 13.5949 9.33349 12.8716C7.84437 12.3887 7.30545 13.086 7.06145 13.9989C6.52127 15.427 6.2779 17.5517 6.78853 18.2912C7.579 19.4365 11.4169 20.4097 11.4169 21.4979C11.4169 22.586 11.0509 22.2424 10.6409 22.9297C10.2315 23.617 6.56214 21.1542 5.48995 20.5247C4.41776 19.8945 3.73986 22.8154 3.90965 23.6742C4.07881 24.533 14.126 29.5152 15.8195 28.0834C17.513 26.6516 17.4847 24.0172 16.5395 22.4717C15.5937 20.9255 10.5704 19.723 10.2881 18.3484C10.0057 16.9737 9.94914 16.745 10.1749 16.5157C10.4007 16.2864 15.1988 17.4206 15.368 17.6841C15.5371 17.9475 14.5247 19.9679 15.5371 20.0089C16.4401 19.8945 17.6255 20.5241 17.9079 19.2644C18.1902 18.006 18.5852 16.1758 17.6255 15.8881Z" fill="url(#paint19_linear_411_875)"/>
<path d="M27.1206 18.3911C26.4056 17.5658 23.7028 17.3949 23.1387 17.4328C22.574 17.4708 22.4237 18.2724 22.3482 18.1966C22.2728 18.1202 22.235 17.7386 22.1225 17.2421C22.0212 16.7983 20.5359 16.4075 19.5505 16.3298C19.3172 16.3118 19.0983 16.4429 19.0034 16.6598C18.3638 18.1183 18.3927 22.7978 17.9834 24.4577C17.7576 26.519 16.3289 28.2032 17.552 28.4605C18.7751 28.7171 20.4673 29.3448 21.2572 29.1919C21.9722 27.5886 21.032 25.4122 21.5207 23.8474C21.5961 23.4659 22.8752 24.4583 24.0795 24.5727C25.2837 24.687 26.82 23.4553 26.9703 22.768C27.1206 22.0807 27.8356 19.217 27.1206 18.3911ZM23.6726 22.7717C23.3255 22.6512 21.8212 22.5107 21.8212 22.0527C21.8212 21.5947 21.9715 19.9149 22.1973 19.2276C22.1973 19.2276 24.4857 19.2276 24.4857 20.1057C24.4631 20.4108 24.0197 22.8923 23.6726 22.7717Z" fill="url(#paint20_linear_411_875)"/>
<path d="M42.179 24.5111C42.6305 24.0873 46.2433 24.8778 46.7507 24.0954C47.2582 23.313 48.4442 20.4686 48.2745 19.6092C48.1135 18.7932 45.405 16.8754 42.9405 16.5547C43.0009 16.3248 43.0279 16.0992 43.0066 15.8879C42.8934 14.7606 41.0892 13.811 40.9389 13.9695C40.7886 14.128 40.3937 14.7513 40.3937 14.7513C39.5661 15.7997 36.9941 17.9654 36.4212 18.9026C36.5904 19.227 36.7118 22.3578 36.303 23.8083C35.8942 25.2587 34.0127 30.1011 34.502 30.3907C34.9912 30.6803 38.792 31.5584 39.8453 31.5584C40.8993 31.5584 38.9423 27.6047 38.9423 26.2605C38.9423 25.8025 39.1517 24.8853 39.4504 23.8536C40.3289 25.452 42.5223 30.863 43.0135 31.5584C43.5662 32.3408 45.7911 32.608 47.0891 32.8945C48.387 33.181 47.9921 29.4013 47.484 28.3411C46.9759 27.2809 41.7275 24.935 42.179 24.5111ZM40.6685 20.8297C40.744 20.504 41.1577 19.0933 41.6847 18.9026C41.6847 18.9026 44.2605 19.0753 44.2228 19.4954C44.185 19.9155 43.7895 22.2559 43.2292 22.2559C42.6695 22.2559 40.593 21.1553 40.6685 20.8297Z" fill="url(#paint21_linear_411_875)"/>
<path d="M50.0843 19.908C53.3217 20.929 58.7486 22.6759 60.8434 23.1215C62.3111 23.2744 60.5044 26.2903 60.4296 26.9391C60.3547 27.5879 57.833 25.603 57.0426 25.7173C56.2521 25.8316 55.2925 28.8954 55.6692 30.1172C56.0452 31.3389 56.8262 32.7801 56.0546 33.5817C55.6409 33.849 49.9963 33.6582 49.4316 33.2766C47.6947 32.6048 50.4126 30.3912 51.2376 29.3447C52.1407 28.3417 53.7493 25.8801 53.3166 24.8398C52.9777 24.3054 47.9355 25.0691 47.4463 24.6869C47.7966 24.1034 48.4719 21.8252 48.8008 20.6171C48.9549 20.0547 49.5353 19.7346 50.0843 19.908Z" fill="url(#paint22_linear_411_875)"/>
<path d="M65.2371 22.772C64.3454 23.9633 62.5613 23.4313 62.5613 23.4313C62.5035 24.5176 62.3444 25.7549 62.0809 27.0221C61.6231 28.869 60.554 29.1083 59.4397 28.9392C58.3248 28.7696 57.4098 29.2984 57.6726 30.3909C58.0279 32.0682 57.9908 33.4628 57.1362 33.8847C61.1496 35.0338 78.5216 33.3876 79.2838 30.3909C78.6524 26.1116 71.4124 26.7561 65.2371 22.772Z" fill="url(#paint23_linear_411_875)"/>
</g>
<defs>
<linearGradient id="paint0_linear_411_875" x1="-4.4743" y1="11.1094" x2="74.4531" y2="11.1094" gradientUnits="userSpaceOnUse">
<stop offset="0.00215335" stop-color="#EB07D9"/>
<stop offset="1" stop-color="#1253E9"/>
</linearGradient>
<linearGradient id="paint1_linear_411_875" x1="-4.47423" y1="12.6651" x2="74.4532" y2="12.6651" gradientUnits="userSpaceOnUse">
<stop offset="0.00215335" stop-color="#EB07D9"/>
<stop offset="1" stop-color="#1253E9"/>
</linearGradient>
<linearGradient id="paint2_linear_411_875" x1="-4.47427" y1="14.2209" x2="74.4532" y2="14.2209" gradientUnits="userSpaceOnUse">
<stop offset="0.00215335" stop-color="#EB07D9"/>
<stop offset="1" stop-color="#1253E9"/>
</linearGradient>
<linearGradient id="paint3_linear_411_875" x1="-4.47418" y1="15.7562" x2="74.4531" y2="15.7562" gradientUnits="userSpaceOnUse">
<stop offset="0.00215335" stop-color="#EB07D9"/>
<stop offset="1" stop-color="#1253E9"/>
</linearGradient>
<linearGradient id="paint4_linear_411_875" x1="-4.47425" y1="17.2477" x2="74.4532" y2="17.2477" gradientUnits="userSpaceOnUse">
<stop offset="0.00215335" stop-color="#EB07D9"/>
<stop offset="1" stop-color="#1253E9"/>
</linearGradient>
<linearGradient id="paint5_linear_411_875" x1="-4.47417" y1="18.3701" x2="74.4531" y2="18.3701" gradientUnits="userSpaceOnUse">
<stop offset="0.00215335" stop-color="#EB07D9"/>
<stop offset="1" stop-color="#1253E9"/>
</linearGradient>
<linearGradient id="paint6_linear_411_875" x1="-4.4743" y1="19.4098" x2="74.4531" y2="19.4098" gradientUnits="userSpaceOnUse">
<stop offset="0.00215335" stop-color="#EB07D9"/>
<stop offset="1" stop-color="#1253E9"/>
</linearGradient>
<linearGradient id="paint7_linear_411_875" x1="-4.47423" y1="13.7855" x2="74.4531" y2="13.7855" gradientUnits="userSpaceOnUse">
<stop offset="0.00215335" stop-color="#EB07D9"/>
<stop offset="1" stop-color="#1253E9"/>
</linearGradient>
<linearGradient id="paint8_linear_411_875" x1="-4.47429" y1="32.4236" x2="74.4531" y2="32.4236" gradientUnits="userSpaceOnUse">
<stop offset="0.00215335" stop-color="#EB07D9"/>
<stop offset="1" stop-color="#1253E9"/>
</linearGradient>
<linearGradient id="paint9_linear_411_875" x1="-4.47417" y1="34.578" x2="74.4532" y2="34.578" gradientUnits="userSpaceOnUse">
<stop offset="0.00215335" stop-color="#EB07D9"/>
<stop offset="1" stop-color="#1253E9"/>
</linearGradient>
<linearGradient id="paint10_linear_411_875" x1="-4.47431" y1="36.1181" x2="74.453" y2="36.1181" gradientUnits="userSpaceOnUse">
<stop offset="0.00215335" stop-color="#EB07D9"/>
<stop offset="1" stop-color="#1253E9"/>
</linearGradient>
<linearGradient id="paint11_linear_411_875" x1="-4.47432" y1="39.9523" x2="74.453" y2="39.9523" gradientUnits="userSpaceOnUse">
<stop offset="0.00215335" stop-color="#EB07D9"/>
<stop offset="1" stop-color="#1253E9"/>
</linearGradient>
<linearGradient id="paint12_linear_411_875" x1="18.1529" y1="15.2831" x2="12.1019" y2="4.96444" gradientUnits="userSpaceOnUse">
<stop offset="0.00215335" stop-color="#EB07D9"/>
<stop offset="1" stop-color="#1253E9"/>
</linearGradient>
<linearGradient id="paint13_linear_411_875" x1="24.983" y1="16.9798" x2="19.453" y2="7.42719" gradientUnits="userSpaceOnUse">
<stop offset="0.00215335" stop-color="#EB07D9"/>
<stop offset="1" stop-color="#1253E9"/>
</linearGradient>
<linearGradient id="paint14_linear_411_875" x1="30.8908" y1="16.3909" x2="24.3573" y2="6.41688" gradientUnits="userSpaceOnUse">
<stop offset="0.00215335" stop-color="#EB07D9"/>
<stop offset="1" stop-color="#1253E9"/>
</linearGradient>
<linearGradient id="paint15_linear_411_875" x1="33.5592" y1="14.3678" x2="27.1425" y2="4.57219" gradientUnits="userSpaceOnUse">
<stop offset="0.00215335" stop-color="#EB07D9"/>
<stop offset="1" stop-color="#1253E9"/>
</linearGradient>
<linearGradient id="paint16_linear_411_875" x1="34.9093" y1="14.6568" x2="29.8998" y2="7.41728" gradientUnits="userSpaceOnUse">
<stop offset="0.00215335" stop-color="#EB07D9"/>
<stop offset="1" stop-color="#1253E9"/>
</linearGradient>
<linearGradient id="paint17_linear_411_875" x1="38.5323" y1="16.4682" x2="31.0374" y2="5.63684" gradientUnits="userSpaceOnUse">
<stop offset="0.00215335" stop-color="#EB07D9"/>
<stop offset="1" stop-color="#1253E9"/>
</linearGradient>
<linearGradient id="paint18_linear_411_875" x1="27.2013" y1="24.5112" x2="35.8572" y2="24.5112" gradientUnits="userSpaceOnUse">
<stop offset="0.00215335" stop-color="#F43200"/>
<stop offset="1" stop-color="#FB6F00"/>
</linearGradient>
<linearGradient id="paint19_linear_411_875" x1="3.88348" y1="20.5278" x2="18.2332" y2="20.5278" gradientUnits="userSpaceOnUse">
<stop offset="0.00215335" stop-color="#F43200"/>
<stop offset="1" stop-color="#FB6F00"/>
</linearGradient>
<linearGradient id="paint20_linear_411_875" x1="17.0624" y1="22.7716" x2="27.4328" y2="22.7716" gradientUnits="userSpaceOnUse">
<stop offset="0.00215335" stop-color="#F43200"/>
<stop offset="1" stop-color="#FB6F00"/>
</linearGradient>
<linearGradient id="paint21_linear_411_875" x1="34.4219" y1="23.4312" x2="48.2914" y2="23.4312" gradientUnits="userSpaceOnUse">
<stop offset="0.00215335" stop-color="#F43200"/>
<stop offset="1" stop-color="#FB6F00"/>
</linearGradient>
<linearGradient id="paint22_linear_411_875" x1="47.4472" y1="26.7836" x2="61.4164" y2="26.7836" gradientUnits="userSpaceOnUse">
<stop offset="0.00215335" stop-color="#F43200"/>
<stop offset="1" stop-color="#FB6F00"/>
</linearGradient>
<linearGradient id="paint23_linear_411_875" x1="-4.47432" y1="28.5123" x2="74.453" y2="28.5123" gradientUnits="userSpaceOnUse">
<stop offset="0.00215335" stop-color="#EB07D9"/>
<stop offset="1" stop-color="#1253E9"/>
</linearGradient>
<clipPath id="clip0_411_875">
<rect width="80" height="42" fill="white"/>
</clipPath>
</defs>
</svg>
